<svg width="80" height="87" viewBox="0 0 80 87" fill="none" xmlns="http://www.w3.org/2000/svg">
<path d="M41.12 86.96C32.48 86.96 25.12 85.16 19.04 81.56C12.96 77.88 8.32 72.8 5.12 66.32C1.92 59.76 0.32 52.12 0.32 43.4C0.32 36.92 1.2 31.04 2.96 25.76C4.8 20.4 7.44 15.8 10.88 11.96C14.4 8.12 18.68 5.2 23.72 3.19999C28.76 1.12 34.48 0.0799975 40.88 0.0799975C47.36 0.0799975 53.16 1.12 58.28 3.19999C63.4 5.27999 67.64 8.4 71 12.56C74.44 16.64 76.68 21.76 77.72 27.92H60.32C59.68 25.28 58.52 23.12 56.84 21.44C55.16 19.68 53.04 18.36 50.48 17.48C48 16.6 45.16 16.16 41.96 16.16C37.56 16.16 33.84 16.92 30.8 18.44C27.76 19.96 25.28 22.04 23.36 24.68C21.52 27.24 20.16 30.2 19.28 33.56C18.48 36.84 18.08 40.24 18.08 43.76C18.08 48.56 18.88 53.04 20.48 57.2C22.08 61.28 24.6 64.6 28.04 67.16C31.48 69.64 36.04 70.88 41.72 70.88C45.48 70.88 48.8 70.32 51.68 69.2C54.64 68 57 66.24 58.76 63.92C60.6 61.52 61.64 58.64 61.88 55.28H38.72V40.52H79.52V45.2C79.52 53.84 78.08 61.28 75.2 67.52C72.32 73.76 68.04 78.56 62.36 81.92C56.68 85.28 49.6 86.96 41.12 86.96Z" fill="url(#paint0_linear_234_17)"/>
<defs>
<linearGradient id="paint0_linear_234_17" x1="40" y1="-80" x2="40" y2="173" gradientUnits="userSpaceOnUse">
<stop stop-color="#0059FF"/>
<stop offset="1" stop-color="#5AA7FF"/>
</linearGradient>
</defs>
</svg>
